HIERARCHY
ROOT Joint1
{
	OFFSET 0.000000 0.000000 0.000000
	CHANNELS 6 Xposition Yposition Zposition Xrotation Yrotation Zrotation
	JOINT Joint2
	{
		OFFSET -0.000000 0.000000 1.456275
		CHANNELS 6 Xposition Yposition Zposition Xrotation Yrotation Zrotation
		JOINT Joint3
		{
			OFFSET -0.000000 0.000002 1.471446
			CHANNELS 6 Xposition Yposition Zposition Xrotation Yrotation Zrotation
			JOINT Joint4
			{
				OFFSET 0.625745 0.000000 0.917755
				CHANNELS 6 Xposition Yposition Zposition Xrotation Yrotation Zrotation
				JOINT Joint5
				{
					OFFSET -0.629534 0.000001 0.940221
					CHANNELS 6 Xposition Yposition Zposition Xrotation Yrotation Zrotation
					JOINT Joint6
					{
						OFFSET -0.000001 0.113772 1.960660
						CHANNELS 6 Xposition Yposition Zposition Xrotation Yrotation Zrotation
						JOINT Joint7
						{
							OFFSET -0.669733 -0.113771 0.388340
							CHANNELS 6 Xposition Yposition Zposition Xrotation Yrotation Zrotation
							End Site
							{
								OFFSET 0.005509 0.005509 0.438980
							}
						}
					}
				}
			}
		}
	}
}
MOTION
Frames: 29
Frame Time: 0.041667
0.000000 0.000000 0.000000 -0.000000 1.019410 -0.006309 -0.000000 -0.000000 1.456275 0.000000 -44.963822 -0.000000 -0.000000 0.000002 1.471446 0.000000 -1.133462 -0.033748 0.625745 0.000000 0.917755 0.000004 135.029152 -0.000001 -0.629534 0.000001 0.940221 -0.000000 1.709736 0.020124 -0.000001 0.113772 1.960660 -88.309633 89.966521 -0.003645 -0.669733 -0.113771 0.388340 -0.705289 3.566198 134.970808 
0.000000 0.000000 0.000000 -0.000000 1.019410 0.007431 -0.000000 -0.000000 1.456275 -0.000000 -44.922813 -0.000000 -0.000000 0.000002 1.471446 0.000000 -1.133459 -0.024421 0.625745 0.000000 0.917755 0.000004 135.031911 -0.000001 -0.629534 0.000001 0.940221 -0.000000 1.709737 0.136808 -0.000001 0.113772 1.960660 -88.306723 89.933278 -0.001747 -0.669733 -0.113771 0.388340 -0.705561 3.566198 134.986067 
0.000000 0.000000 0.000000 -0.000000 1.019410 0.030551 -0.000000 0.000000 1.456275 -0.000000 -44.853798 -0.000000 -0.000000 0.000002 1.471446 0.000000 -1.133462 -0.008725 0.625745 0.000000 0.917755 0.000004 135.036528 -0.000001 -0.629534 0.000001 0.940221 -0.000000 1.709736 0.333157 -0.000001 0.113772 1.960660 -88.305439 89.877332 -0.001059 -0.669733 -0.113771 0.388341 -0.706017 3.566198 135.011748 
0.000000 0.000000 0.000000 -0.000000 1.019410 0.063232 -0.000000 -0.000000 1.456275 -0.000000 -44.756256 -0.000000 -0.000000 0.000002 1.471446 0.000000 -1.133460 0.013461 0.625745 0.000000 0.917755 0.000004 135.043072 -0.000001 -0.629534 0.000001 0.940221 -0.000000 1.709736 0.610702 -0.000001 0.113772 1.960660 -88.304913 89.798246 -0.000590 -0.669733 -0.113771 0.388341 -0.706661 3.566198 135.048030 
0.000000 0.000000 0.000000 -0.000000 1.019410 0.105655 -0.000000 0.000000 1.456275 -0.000000 -44.629631 -0.000000 -0.000000 0.000002 1.471446 -0.000000 -1.133464 0.042261 0.625745 0.000000 0.917755 0.000004 135.051555 -0.000001 -0.629533 0.000001 0.940221 -0.000000 1.709737 0.970977 -0.000001 0.113772 1.960660 -88.304504 89.695588 -0.000393 -0.669733 -0.113771 0.388341 -0.707499 3.566197 135.095159 
0.000000 0.000000 0.000000 -0.000000 1.019410 0.158001 -0.000000 0.000000 1.456275 -0.000000 -44.473383 -0.000000 -0.000000 0.000002 1.471446 0.000000 -1.133462 0.077796 0.625745 0.000000 0.917755 0.000004 135.062032 -0.000001 -0.629534 0.000001 0.940221 -0.000000 1.709736 1.415516 -0.000000 0.113772 1.960660 -88.304278 89.568922 -0.000287 -0.669733 -0.113771 0.388340 -0.708531 3.566194 135.153297 
0.000000 0.000000 0.000000 -0.000000 1.019410 0.220449 -0.000000 -0.000000 1.456275 -0.000000 -44.286994 -0.000000 -0.000001 0.000002 1.471446 -0.000000 -1.133466 0.120190 0.625745 0.000000 0.917755 0.000004 135.074545 -0.000001 -0.629533 0.000001 0.940221 -0.000000 1.709736 1.945853 -0.000000 0.113772 1.960661 -88.304196 89.417811 -0.000164 -0.669733 -0.113771 0.388339 -0.709762 3.566190 135.222637 
0.000000 0.000000 0.000000 -0.000000 1.019410 0.293180 -0.000000 0.000000 1.456275 -0.000000 -44.069907 0.000000 -0.000000 0.000002 1.471446 -0.000000 -1.133458 0.169565 0.625745 0.000000 0.917755 0.000004 135.089080 -0.000001 -0.629534 0.000001 0.940221 -0.000000 1.709736 2.563520 -0.000001 0.113772 1.960660 -88.304121 89.241817 -0.000157 -0.669733 -0.113771 0.388340 -0.711197 3.566183 135.303397 
0.000000 0.000000 0.000000 -0.000000 1.019410 0.376376 -0.000000 0.000000 1.456275 -0.000000 -43.821585 0.000000 -0.000000 0.000002 1.471446 0.000000 -1.133459 0.226043 0.625745 0.000000 0.917755 0.000004 135.105732 -0.000001 -0.629534 0.000001 0.940221 -0.000000 1.709737 3.270049 -0.000001 0.113772 1.960660 -88.304080 89.040504 -0.000146 -0.669733 -0.113771 0.388340 -0.712838 3.566173 135.395796 
0.000000 0.000000 0.000000 -0.000000 1.019410 0.470215 -0.000000 -0.000000 1.456275 -0.000000 -43.541489 0.000000 -0.000000 0.000002 1.471446 -0.000000 -1.133461 0.289748 0.625745 0.000000 0.917755 0.000004 135.124515 -0.000001 -0.629534 0.000001 0.940220 -0.000000 1.709737 4.066977 -0.000001 0.113772 1.960661 -88.304032 88.813428 -0.000108 -0.669733 -0.113771 0.388340 -0.714690 3.566159 135.500011 
0.000000 0.000000 0.000000 -0.000000 1.019410 0.574880 -0.000000 0.000000 1.456275 0.000000 -43.229083 0.000000 -0.000000 0.000002 1.471445 0.000000 -1.133460 0.360801 0.625745 0.000000 0.917755 0.000004 135.145456 -0.000001 -0.629534 0.000001 0.940221 -0.000000 1.709737 4.955834 -0.000001 0.113772 1.960660 -88.304026 88.560158 -0.000080 -0.669733 -0.113771 0.388339 -0.716754 3.566140 135.616234 
0.000000 0.000000 0.000000 -0.000000 1.019410 0.690550 -0.000000 0.000000 1.456275 0.000000 -42.883834 -0.000000 -0.000000 0.000002 1.471445 0.000000 -1.133459 0.439326 0.625745 0.000000 0.917755 0.000004 135.168610 -0.000001 -0.629534 0.000001 0.940221 -0.000000 1.709736 5.938155 -0.000000 0.113772 1.960660 -88.303978 88.280256 -0.000060 -0.669733 -0.113771 0.388340 -0.719035 3.566111 135.744682 
0.000000 0.000000 0.000000 -0.000000 1.019410 0.817406 -0.000000 -0.000000 1.456275 -0.000000 -42.505200 0.000000 -0.000000 0.000002 1.471446 0.000000 -1.133459 0.525444 0.625745 0.000000 0.917755 0.000003 135.194005 -0.000001 -0.629534 0.000001 0.940221 -0.000000 1.709736 7.015473 -0.000001 0.113772 1.960661 -88.303998 87.973287 -0.000059 -0.669733 -0.113771 0.388340 -0.721537 3.566076 135.885562 
0.000000 0.000000 0.000000 -0.000000 1.019410 0.955629 -0.000000 -0.000000 1.456275 -0.000000 -42.092629 -0.000000 -0.000000 0.000002 1.471446 0.000000 -1.133456 0.619279 0.625744 0.000000 0.917755 0.000003 135.221654 -0.000001 -0.629534 0.000001 0.940221 -0.000000 1.709736 8.189320 -0.000000 0.113772 1.960661 -88.303964 87.638820 -0.000055 -0.669733 -0.113771 0.388339 -0.724264 3.566031 136.039063 
0.000000 0.000000 0.000000 -0.000000 1.019410 1.105399 -0.000000 0.000000 1.456275 0.000000 -41.645593 -0.000000 -0.000000 0.000002 1.471445 -0.000000 -1.133458 0.720952 0.625745 0.000000 0.917755 0.000004 135.251638 -0.000001 -0.629534 0.000001 0.940221 -0.000000 1.709736 9.461233 -0.000001 0.113772 1.960660 -88.303964 87.276403 -0.000036 -0.669733 -0.113771 0.388340 -0.727217 3.565973 136.205392 
0.000000 0.000000 0.000000 -0.000000 1.019410 1.266735 -0.000000 0.000000 1.456275 -0.000000 -41.164044 -0.000000 -0.000000 0.000002 1.471446 0.000000 -1.133460 0.830478 0.625745 0.000000 0.917755 0.000004 135.283918 -0.000001 -0.629534 0.000001 0.940221 0.000000 1.709736 10.831366 -0.000001 0.113772 1.960661 -88.303944 86.886003 -0.000034 -0.669733 -0.113771 0.388340 -0.730398 3.565902 136.384548 
0.000000 0.000000 0.000000 -0.000000 1.019410 1.439007 -0.000000 -0.000000 1.456275 -0.000000 -40.649844 0.000000 -0.000000 0.000002 1.471446 -0.000000 -1.133465 0.947428 0.625745 0.000000 0.917755 0.000003 135.318396 -0.000001 -0.629534 0.000001 0.940221 -0.000000 1.709736 12.294380 -0.000001 0.113772 1.960661 -88.303930 86.469136 -0.000024 -0.669733 -0.113771 0.388340 -0.733796 3.565815 136.575862 
0.000000 0.000000 0.000000 -0.000000 1.019410 1.621426 -0.000000 0.000000 1.456275 -0.000000 -40.105365 0.000000 -0.000000 0.000002 1.471445 -0.000000 -1.133457 1.071265 0.625744 0.000000 0.917755 0.000004 135.354924 -0.000001 -0.629534 0.000001 0.940221 0.000000 1.709737 13.843555 -0.000001 0.113772 1.960660 -88.303937 86.027722 -0.000046 -0.669733 -0.113771 0.388340 -0.737391 3.565711 136.778445 
0.000000 0.000000 0.000000 -0.000000 1.019410 1.813199 -0.000000 0.000000 1.456275 0.000000 -39.532954 0.000000 -0.000001 0.000002 1.471446 0.000000 -1.133458 1.201453 0.625745 0.000000 0.917755 0.000004 135.393296 -0.000001 -0.629533 0.000001 0.940221 -0.000000 1.709736 15.472177 -0.000001 0.113772 1.960661 -88.303937 85.563665 -0.000045 -0.669733 -0.113771 0.388340 -0.741173 3.565584 136.991424 
0.000000 0.000000 0.000000 -0.000000 1.019410 2.013537 -0.000000 0.000000 1.456275 0.000000 -38.934988 0.000000 -0.000001 0.000002 1.471445 -0.000000 -1.133460 1.337455 0.625745 0.000000 0.917755 0.000003 135.433390 -0.000001 -0.629534 0.000001 0.940221 -0.000000 1.709736 17.173531 0.000000 0.113772 1.960660 -88.303916 85.078885 -0.000041 -0.669733 -0.113771 0.388340 -0.745123 3.565440 137.213883 
0.000000 0.000000 0.000000 -0.000000 1.019410 2.221647 -0.000000 0.000000 1.456275 -0.000000 -38.313823 -0.000000 -0.000000 0.000002 1.471446 0.000000 -1.133459 1.478735 0.625745 0.000000 0.917755 0.000003 135.475040 -0.000001 -0.629533 0.000001 0.940221 0.000000 1.709736 18.940895 -0.000001 0.113772 1.960661 -88.303909 84.575309 -0.000008 -0.669733 -0.113771 0.388340 -0.749225 3.565274 137.445017 
0.000000 0.000000 0.000000 -0.000000 1.019410 2.436634 -0.000000 0.000000 1.456275 0.000000 -37.672134 0.000000 -0.000000 0.000002 1.471446 0.000000 -1.133461 1.624682 0.625744 0.000000 0.917755 0.000003 135.518070 -0.000001 -0.629534 0.000001 0.940221 -0.000000 1.709736 20.766654 -0.000001 0.113772 1.960661 -88.303930 84.055074 -0.000029 -0.669733 -0.113771 0.388340 -0.753460 3.565085 137.683773 
0.000000 0.000000 0.000000 -0.000000 1.019410 2.657178 -0.000000 0.000000 1.456275 -0.000000 -37.013854 0.000000 -0.000000 0.000002 1.471446 -0.000000 -1.133460 1.774401 0.625744 0.000000 0.917755 0.000003 135.562180 -0.000001 -0.629533 0.000001 0.940221 -0.000001 1.709738 22.639605 -0.000001 0.113772 1.960660 -88.303909 83.521404 -0.000023 -0.669734 -0.113771 0.388340 -0.757805 3.564871 137.928676 
0.000000 0.000000 0.000000 -0.000000 1.019410 2.881853 -0.000000 0.000000 1.456275 0.000000 -36.343245 -0.000000 -0.000000 0.000002 1.471446 0.000000 -1.133459 1.926926 0.625745 0.000000 0.917755 0.000003 135.607163 -0.000001 -0.629534 0.000001 0.940221 -0.000000 1.709736 24.547644 -0.000001 0.113772 1.960661 -88.303916 82.977735 -0.000018 -0.669733 -0.113771 0.388340 -0.762231 3.564637 138.178197 
0.000000 0.000000 0.000000 -0.000000 1.019410 3.109233 -0.000000 0.000000 1.456275 0.000000 -35.664550 -0.000000 -0.000001 0.000002 1.471446 0.000000 -1.133460 2.081286 0.625744 0.000000 0.917755 0.000004 135.652666 -0.000002 -0.629534 0.000001 0.940221 -0.000000 1.709737 26.478659 -0.000001 0.113772 1.960661 -88.303903 82.427522 -0.000024 -0.669733 -0.113771 0.388340 -0.766708 3.564376 138.430695 
0.000000 0.000000 0.000000 -0.000000 1.019410 3.337895 -0.000000 0.000000 1.456275 -0.000000 -34.982043 0.000000 -0.000000 0.000002 1.471446 0.000000 -1.133458 2.236516 0.625744 0.000000 0.917755 0.000003 135.698428 -0.000001 -0.629534 0.000001 0.940221 -0.000001 1.709736 28.420554 -0.000001 0.113772 1.960661 -88.303903 81.874202 -0.000027 -0.669733 -0.113771 0.388340 -0.771211 3.564096 138.684628 
0.000000 0.000000 0.000000 -0.000000 1.019410 3.566441 -0.000000 0.000000 1.456275 0.000000 -34.299885 0.000000 -0.000000 0.000002 1.471446 0.000000 -1.133457 2.391668 0.625744 0.000000 0.917755 0.000003 135.744163 -0.000000 -0.629534 0.000001 0.940221 -0.000001 1.709738 30.361458 -0.000001 0.113772 1.960660 -88.303909 81.321168 -0.000016 -0.669733 -0.113771 0.388340 -0.775708 3.563802 138.938438 
0.000000 0.000000 0.000000 -0.000000 1.019410 3.793590 -0.000000 0.000000 1.456275 -0.000000 -33.621893 0.000000 -0.000000 0.000002 1.471446 -0.000000 -1.133460 2.545873 0.625744 0.000000 0.917756 0.000003 135.789625 -0.000001 -0.629533 0.000001 0.940221 -0.000001 1.709738 32.290508 -0.000002 0.113772 1.960661 -88.303909 80.771509 -0.000007 -0.669733 -0.113771 0.388340 -0.780178 3.563483 139.190690 
0.000000 0.000000 0.000000 -0.000000 1.019410 4.018091 -0.000000 0.000000 1.456275 -0.000000 -32.951797 -0.000000 -0.000000 0.000002 1.471445 -0.000000 -1.133460 2.698279 0.625744 0.000000 0.917755 0.000004 135.834554 -0.000000 -0.629534 0.000001 0.940221 -0.000000 1.709738 34.197070 -0.000001 0.113772 1.960660 -88.303903 80.228263 -0.000013 -0.669733 -0.113771 0.388341 -0.784591 3.563153 139.440006 
